<?xml version="1.0" encoding="utf-8"?>
<!-- Generator: Adobe Illustrator 21.1.0, SVG Export Plug-In . SVG Version: 6.00 Build 0)  -->
<svg version="1.1" id="图层_1" xmlns="http://www.w3.org/2000/svg" xmlns:xlink="http://www.w3.org/1999/xlink" x="0px" y="0px"
	 viewBox="0 0 166 62" style="enable-background:new 0 0 166 62;" xml:space="preserve">
<style type="text/css">
	.st0{fill:#A6A6A6;}
	.st1{fill:#FFFFFF;}
</style>
<g>
	<g>
		<path class="st0" d="M151.9,0.5H15c-0.6,0-1.1,0-1.7,0c-0.5,0-0.9,0-1.4,0c-1,0-2,0.1-3.1,0.3c-1,0.2-2,0.5-2.9,1
			C5,2.2,4.2,2.8,3.5,3.5C2.7,4.3,2.1,5.1,1.7,6c-0.5,0.9-0.8,1.9-1,2.9c-0.2,1-0.3,2-0.3,3.1c0,0.5,0,0.9,0,1.4v35.2
			c0,0.5,0,0.9,0,1.4c0,1,0.1,2,0.3,3.1c0.2,1,0.5,2,1,2.9c0.5,0.9,1.1,1.7,1.8,2.5c0.7,0.7,1.6,1.3,2.5,1.8c0.9,0.5,1.9,0.8,2.9,1
			c1,0.2,2,0.3,3.1,0.3c0.5,0,0.9,0,1.4,0c0.6,0,1.1,0,1.7,0h136.9c0.5,0,1.1,0,1.7,0c0.5,0,0.9,0,1.4,0c1,0,2-0.1,3.1-0.3
			c1-0.2,2-0.5,2.9-1c0.9-0.5,1.7-1.1,2.5-1.8c0.7-0.7,1.3-1.6,1.8-2.5c0.5-0.9,0.8-1.9,0.9-2.9c0.2-1,0.3-2,0.3-3.1
			c0-0.5,0-0.9,0-1.4c0-0.6,0-1.1,0-1.7V15c0-0.6,0-1.1,0-1.7c0-0.5,0-0.9,0-1.4c0-1-0.1-2-0.3-3.1c-0.2-1-0.5-2-0.9-2.9
			c-0.9-1.8-2.4-3.3-4.3-4.3C160,1.3,159,1,158,0.8c-1-0.2-2-0.3-3.1-0.3c-0.5,0-0.9,0-1.4,0C153,0.5,152.4,0.5,151.9,0.5z"/>
		<path d="M13.3,60.2c-0.5,0-0.9,0-1.4,0c-1,0-1.9-0.1-2.9-0.2c-0.9-0.2-1.7-0.4-2.5-0.8c-0.8-0.4-1.5-0.9-2.1-1.6
			c-0.6-0.6-1.2-1.3-1.6-2.1c-0.4-0.8-0.7-1.6-0.8-2.5C1.9,51.9,1.8,51,1.8,50c0-0.3,0-1.4,0-1.4V13.4c0,0,0-1.1,0-1.4
			c0-1,0.1-1.9,0.3-2.9c0.1-0.9,0.4-1.7,0.8-2.5c0.4-0.8,0.9-1.5,1.5-2.1C5,3.9,5.8,3.3,6.5,2.9c0.8-0.4,1.6-0.7,2.5-0.8
			C10,1.9,11,1.9,11.9,1.9l1.4,0h140.2l1.4,0c0.9,0,1.9,0.1,2.8,0.2c0.9,0.2,1.7,0.4,2.5,0.8c1.6,0.8,2.9,2.1,3.7,3.7
			c0.4,0.8,0.7,1.6,0.8,2.5c0.2,1,0.2,1.9,0.3,2.9c0,0.4,0,0.9,0,1.4c0,0.6,0,1.1,0,1.7V47c0,0.6,0,1.1,0,1.6c0,0.5,0,1,0,1.4
			c0,0.9-0.1,1.9-0.3,2.8c-0.1,0.9-0.4,1.7-0.8,2.5c-0.4,0.8-0.9,1.5-1.5,2.1c-0.6,0.6-1.3,1.2-2.1,1.6c-0.8,0.4-1.7,0.7-2.5,0.8
			c-0.9,0.2-1.9,0.2-2.9,0.2c-0.4,0-0.9,0-1.4,0l-1.7,0L13.3,60.2z"/>
	</g>
	<g>
		<path class="st1" d="M63.2,25.7H57l-1.5,4.4h-2.6l5.9-16.2h2.7l5.9,16.2h-2.7L63.2,25.7z M57.7,23.7h4.9l-2.4-7.1h-0.1L57.7,23.7z
			"/>
		<path class="st1" d="M80,24.2c0,3.7-2,6-4.9,6c-1.5,0.1-3-0.7-3.7-2.1h-0.1V34h-2.4V18.3h2.3v2h0c0.8-1.3,2.2-2.1,3.8-2.1
			C78,18.2,80,20.6,80,24.2z M77.5,24.2c0-2.4-1.2-4-3.1-4c-1.9,0-3.1,1.6-3.1,4c0,2.4,1.2,4,3.1,4C76.3,28.2,77.5,26.6,77.5,24.2
			L77.5,24.2z"/>
		<path class="st1" d="M93,24.2c0,3.7-2,6-4.9,6c-1.5,0.1-3-0.7-3.7-2.1h-0.1V34h-2.4V18.3h2.3v2h0c0.8-1.3,2.2-2.1,3.8-2.1
			C91,18.2,93,20.6,93,24.2z M90.5,24.2c0-2.4-1.2-4-3.1-4c-1.9,0-3.1,1.6-3.1,4c0,2.4,1.2,4,3.1,4C89.3,28.2,90.5,26.6,90.5,24.2z"
			/>
		<path class="st1" d="M101.6,25.6c0.2,1.6,1.7,2.7,3.9,2.7c2,0,3.5-1.1,3.5-2.5c0-1.3-0.9-2-3-2.5l-2.1-0.5c-3-0.7-4.4-2.1-4.4-4.4
			c0-2.8,2.4-4.7,5.9-4.7c3.4,0,5.8,1.9,5.9,4.7h-2.4c-0.1-1.6-1.5-2.6-3.4-2.6s-3.3,1-3.3,2.4c0,1.1,0.9,1.8,2.9,2.3l1.8,0.4
			c3.3,0.8,4.7,2.1,4.7,4.5c0,3-2.4,4.9-6.3,4.9c-3.6,0-6-1.9-6.2-4.8L101.6,25.6z"/>
		<path class="st1" d="M116.8,15.5v2.8h2.2v1.9h-2.2v6.5c0,1,0.4,1.5,1.4,1.5c0.3,0,0.5,0,0.8-0.1v1.9c-0.4,0.1-0.9,0.1-1.3,0.1
			c-2.4,0-3.3-0.9-3.3-3.2v-6.8h-1.7v-1.9h1.7v-2.8L116.8,15.5z"/>
		<path class="st1" d="M120.3,24.2c0-3.7,2.2-6.1,5.6-6.1c3.4,0,5.6,2.3,5.6,6.1c0,3.7-2.2,6.1-5.6,6.1
			C122.5,30.3,120.3,27.9,120.3,24.2z M129.1,24.2c0-2.6-1.2-4.1-3.1-4.1s-3.1,1.5-3.1,4.1c0,2.6,1.2,4.1,3.1,4.1
			S129.1,26.8,129.1,24.2z"/>
		<path class="st1" d="M133.5,18.3h2.3v2h0.1c0.3-1.3,1.5-2.2,2.8-2.1c0.3,0,0.6,0,0.8,0.1v2.3c-0.4-0.1-0.7-0.2-1.1-0.1
			c-1.3-0.1-2.5,1-2.5,2.3c0,0.1,0,0.3,0,0.4v7h-2.4V18.3z"/>
		<path class="st1" d="M150.8,26.7c-0.6,2.3-2.7,3.9-5.1,3.6c-3.4,0-5.6-2.3-5.6-6c0-3.7,2.1-6.1,5.5-6.1c3.3,0,5.3,2.2,5.3,5.8v0.8
			h-8.3V25c-0.1,1.7,1.1,3.2,2.8,3.3c0.1,0,0.3,0,0.4,0c1.2,0.1,2.3-0.6,2.7-1.7L150.8,26.7z M142.6,23.1h5.9c0.1-1.6-1.1-2.9-2.7-3
			c-0.1,0-0.1,0-0.2,0C143.9,20.1,142.6,21.5,142.6,23.1C142.6,23.1,142.6,23.1,142.6,23.1z"/>
	</g>
	<g>
		<path class="st1" d="M52.9,37.2h11.4v1.2h-5.4V40c0.8,0.4,1.6,0.8,2.3,1.2c0.8,0.4,1.6,0.9,2.4,1.4l-0.7,1.1
			c-0.8-0.5-1.6-1-2.2-1.4c-0.7-0.4-1.3-0.7-1.8-1v7h-1.2v-10h-4.8L52.9,37.2z"/>
		<path class="st1" d="M67.5,37.5h2.4v-1H71v1h2.2v1.1H71v0.9h2.8c0-0.5,0-0.9-0.1-1.4c0-0.5,0-1,0-1.6h1.2c0,0.6,0,1.1,0,1.6
			c0,0.5,0,1,0.1,1.4h3.1v1.1h-3c0,0.5,0.1,1,0.1,1.4c0.1,0.4,0.1,0.8,0.2,1.1c0,0.1,0.1,0.2,0.1,0.3c0,0.1,0,0.2,0.1,0.3
			c0.2-0.4,0.4-0.9,0.5-1.3c0.2-0.5,0.3-1,0.4-1.5l1.1,0.5c-0.3,1.4-0.8,2.7-1.5,3.9c0,0.1,0.1,0.2,0.1,0.3c0,0.1,0.1,0.2,0.1,0.3
			c0.3,0.6,0.5,0.9,0.7,0.9c0.1,0,0.3-0.6,0.4-1.8l1,0.5c-0.3,1.7-0.7,2.6-1.3,2.6c-0.4,0-0.9-0.4-1.5-1.1c-0.1-0.2-0.2-0.4-0.3-0.5
			c-0.6,0.7-1.3,1.4-2.1,1.8l-0.7-1c0.9-0.5,1.7-1.2,2.3-2.1c-0.1-0.3-0.2-0.6-0.3-0.9c-0.1-0.3-0.2-0.6-0.2-0.9
			c-0.2-0.9-0.3-1.9-0.4-2.8h-7.1v-1.1h3v-0.9h-2.4L67.5,37.5z M73.2,45.6v1.1c-0.3,0-0.6,0.1-0.9,0.1c-0.3,0-0.6,0.1-1,0.1v1.5
			h-1.2V47c-0.4,0-0.9,0.1-1.4,0.1c-0.5,0-0.9,0.1-1.4,0.1l-0.2-1.1c0.5,0,1,0,1.5-0.1c0.5,0,0.9-0.1,1.4-0.1V45h-2.3l-0.2-1
			c0.3-0.4,0.6-0.9,0.8-1.4h-1.2v-1.1h1.7c0.1-0.1,0.1-0.3,0.1-0.4c0-0.1,0.1-0.3,0.1-0.4l1.1,0.2c0,0.1-0.1,0.2-0.1,0.3
			c0,0.1-0.1,0.2-0.1,0.3h3.2v1.1h-3.6c-0.1,0.3-0.3,0.5-0.4,0.7S69,43.8,68.9,44h1.2v-0.8h1.2V44h1.8v1h-1.8v0.8
			c0.3,0,0.6-0.1,1-0.1C72.6,45.7,72.9,45.6,73.2,45.6z M75.3,37.3l0.9-0.6c0.5,0.6,1,1.2,1.5,1.9l-0.9,0.6
			c-0.2-0.3-0.4-0.6-0.6-0.9C75.9,37.9,75.6,37.6,75.3,37.3L75.3,37.3z"/>
	</g>
	<g id="_Group__1_">
		<g id="_Group_2_1_">
			<path id="_Path__1_" class="st1" d="M38.2,31.5c0-2.6,1.4-5,3.6-6.3c-1.4-2-3.7-3.2-6.1-3.3c-2.6-0.3-5,1.5-6.3,1.5
				c-1.3,0-3.3-1.5-5.5-1.5C21,22,18.4,23.6,17,26.1c-2.9,5.1-0.7,12.6,2.1,16.7c1.4,2,3.1,4.3,5.2,4.2c2.1-0.1,2.9-1.3,5.5-1.3
				c2.5,0,3.3,1.3,5.5,1.3c2.3,0,3.7-2,5.1-4.1c1-1.4,1.8-3,2.3-4.7C40,37,38.2,34.4,38.2,31.5z"/>
			<path id="_Path_2_1_" class="st1" d="M34,19.1c1.2-1.5,1.8-3.4,1.7-5.3c-1.9,0.2-3.6,1.1-4.9,2.5c-1.2,1.4-1.9,3.3-1.7,5.1
				C31,21.5,32.8,20.6,34,19.1z"/>
		</g>
	</g>
</g>
</svg>
